<?xml version="1.0" encoding="UTF-8"?>
<svg xmlns="http://www.w3.org/2000/svg" xmlns:xlink="http://www.w3.org/1999/xlink" width="24px" height="24px" viewBox="0 0 24 24" version="1.1">
<g id="surface1">
<path style=" stroke:none;fill-rule:nonzero;fill:#D3D3D3;fill-opacity:1;" d="M 12.867188 12.761719 C 12.394531 15.59375 12.367188 18.425781 12.417969 21.234375 C 10.515625 18.699219 9.539062 15.875 9.777344 12.882812 L 9.195312 12.902344 C 9.078125 12.910156 9 12.851562 8.984375 12.777344 L 7.871094 12.820312 C 7.757812 12.824219 7.679688 12.753906 7.703125 12.671875 L 8.628906 10.484375 C 8.648438 10.40625 8.753906 10.34375 8.859375 10.34375 L 9.441406 10.394531 C 9.484375 10.316406 9.589844 10.261719 9.707031 10.261719 L 10.277344 10.28125 C 11.203125 7.289062 13.273438 4.464844 16.164062 1.929688 C 15.019531 4.738281 13.953125 7.570312 13.328125 10.402344 L 14.136719 10.667969 L 21.894531 10.367188 C 22.007812 10.359375 22.113281 10.300781 22.132812 10.210938 C 22.617188 7.976562 23.242188 5.480469 23.832031 3.265625 C 23.859375 3.15625 23.832031 3.058594 23.742188 2.964844 C 23.011719 2.257812 22.289062 1.542969 21.566406 0.816406 C 21.480469 0.722656 21.347656 0.675781 21.1875 0.675781 C 16.746094 0.5 12.289062 0.332031 7.835938 0.164062 C 7.6875 0.15625 7.535156 0.199219 7.40625 0.28125 C 6.277344 0.976562 5.15625 1.683594 4.046875 2.398438 C 3.90625 2.488281 3.828125 2.59375 3.792969 2.714844 C 2.207031 8.875 1.007812 15.101562 0.203125 21.375 C 0.1875 21.5 0.230469 21.605469 0.335938 21.691406 C 1.175781 22.398438 2.011719 23.105469 2.847656 23.800781 C 2.9375 23.875 3.238281 23.855469 3.238281 23.855469 L 16.113281 23.855469 C 16.113281 23.855469 16.4375 23.800781 16.542969 23.714844 C 17.546875 22.957031 19.097656 21.710938 20.121094 20.976562 C 20.246094 20.882812 20.316406 20.570312 20.332031 20.449219 C 20.554688 18.878906 20.800781 17.308594 21.074219 15.746094 C 21.109375 15.558594 21.144531 15.371094 21.171875 15.171875 C 21.300781 14.445312 21.460938 13.652344 21.609375 12.917969 C 21.644531 12.761719 21.488281 12.628906 21.292969 12.621094 L 13.777344 12.515625 Z M 12.867188 12.761719 "/>
</g>
</svg>
